<svg id="레이어_1" data-name="레이어 1" xmlns="http://www.w3.org/2000/svg" viewBox="0 0 68.77 45.73"><defs><style>.cls-1{fill:none;stroke:#eb673d;stroke-width:0.3px;}.cls-2{fill:#eb673d;}</style></defs><title>logo_vertical</title><path class="cls-1" d="M5.38,8.86V7.16c0-1,.39-1.37,1.59-1.37h3.72c1.29,0,1.58.38,1.58,1.37v1.7h8.55c.84,0,1.58.31,1.58,1.44v1.61a1.38,1.38,0,0,1-1.58,1.54H1.73C.89,13.45.15,13.14.15,12V10.4A1.38,1.38,0,0,1,1.73,8.86Zm9.46-3.77H2.5C1.42,5.09.68,4.78.68,3.65v-2C.68.44,1.42.15,2.5.15h17c1.71,0,2.33.89,2.33,2.14a41.08,41.08,0,0,1-.17,4.65c-.14,1-.28,1.44-1.41,1.44H15.63c-.72,0-1.05-.41-.91-1.2C14.79,6.77,14.84,5.48,14.84,5.09ZM3.29,21.73c-1.68,0-2.61-.55-2.61-2.38v-3c0-1.82.93-2.37,2.61-2.37h17c.84,0,1.58,0,1.58,1.15v1c0,1.22-.74,1.27-1.58,1.27H8.21v.82H20.38c.84,0,1.59,0,1.59,1.15v1.06c0,1.22-.75,1.27-1.59,1.27Z"/><path class="cls-1" d="M30.13,18.13a4.84,4.84,0,0,1-.32,1.65l-.88,2.76a.81.81,0,0,1-.82.58H25.83c-.58,0-.62-.22-.53-.7l.53-2.59h-.6c-1.13,0-1.32-.41-1.32-1.39v-2.3c0-1,.31-1.49,1.51-1.49h3.22c1.29,0,1.49.43,1.49,1.41Z"/><path class="cls-2" d="M20.58,39.63c.84,0,1.58.31,1.58,1.44V44a1.38,1.38,0,0,1-1.58,1.54H1.73c-.84,0-1.58-.31-1.58-1.44V41.17a1.38,1.38,0,0,1,1.58-1.54ZM14.72,26.26c0,3.65,1.68,5.52,5.4,5.52h.34c.84,0,1.58.31,1.58,1.44v3.05a1.38,1.38,0,0,1-1.58,1.54H19.38c-3.41,0-6.75-.82-8.21-3.36C9.7,37,6.34,37.74,3,37.74H1.88C1,37.74.29,37.42.29,36.3v-3c0-1.23.75-1.54,1.59-1.54h.33c3.72,0,5.4-1.87,5.4-5.52v-.67c0-1,.58-1.56,1.78-1.56h3.55c1.3,0,1.78.58,1.78,1.56Z"/><path class="cls-2" d="M31.88,43H44.24c.77,0,1,.38,1,1.06v.57c0,.67-.26,1.06-1,1.06H25.85c-1.2,0-1.89-.39-1.89-1.66V41.53a1.45,1.45,0,0,1,1.63-1.59H37.23v-.48H25c-.77,0-1-.38-1-1.05v-.58c0-.67.26-1,1-1h6V36.2H25c-.84,0-1.58-.19-1.58-1.32v-.75c0-1.22.74-1.41,1.58-1.41H44.1c.84,0,1.58.19,1.58,1.32v.74c0,1.23-.74,1.42-1.58,1.42H38.17v.58h5.11c1.27,0,1.87.45,1.87,1.72v2.14a1.73,1.73,0,0,1-1.87,1.92H31.88ZM26.67,32.26c-1.68,0-2.71-.57-2.71-2.4V26.55c0-1.82,1-2.4,2.71-2.4H42.44c1.68,0,2.71.58,2.71,2.4v3.31c0,1.83-1,2.4-2.71,2.4ZM39,28c0-.48-.12-.48-.6-.48H30.73c-.48,0-.6,0-.6.48v.24c0,.55.07.57.6.57h7.65c.53,0,.6,0,.6-.57Z"/><path class="cls-2" d="M62.05,32.05c0,3.55-2.33,5.85-6.41,5.85H53.53c-4.08,0-6.63-2.3-6.63-5.85v-2.4c0-3.56,2.55-5.86,6.63-5.86H55.4c4.08,0,6.65,2.3,6.65,5.86ZM50.33,45.73A2.44,2.44,0,0,1,47.57,43V39.63c0-.84.44-1.34,1.56-1.34h3.24c1.23,0,1.56.5,1.56,1.34v.84c0,.29,0,.34.34.34H67.18c.84,0,1.59.31,1.59,1.44v1.92a1.4,1.4,0,0,1-1.59,1.56Zm2.09-14.48c0,1.28,1,1.54,1.83,1.54h.48c.84,0,1.8-.26,1.8-1.54v-.81c0-1.27-.94-1.54-1.8-1.54h-.48c-.87,0-1.83.27-1.83,1.54Zm16.23,7.16a1.56,1.56,0,0,1-1.75,1.7H64.28a1.53,1.53,0,0,1-1.75-1.7V25.85a1.57,1.57,0,0,1,1.75-1.7H66.9a1.53,1.53,0,0,1,1.75,1.7Z"/></svg>