<svg id="레이어_1" data-name="레이어 1" xmlns="http://www.w3.org/2000/svg" viewBox="0 0 107.89 23.48">
  <defs>
    <style>.cls-1{fill:none;stroke:#053651;stroke-width:1px;}.cls-2{fill:#053651;}</style>
  </defs>
  <title>logo_horizontal</title>
  <path class="cls-1" d="M5.38,9.07V7.37C5.38,6.36,5.77,6,7,6h3.72c1.29,0,1.58.38,1.58,1.37v1.7h8.55c.84,0,1.58.31,1.58,1.44v1.61a1.38,1.38,0,0,1-1.58,1.54H1.73c-.84,0-1.58-.31-1.58-1.44V10.61A1.38,1.38,0,0,1,1.73,9.07ZM14.84,5.3H2.5C1.42,5.3.68,5,.68,3.86v-2C.68.65,1.42.36,2.5.36h17c1.71,0,2.33.89,2.33,2.14a41.08,41.08,0,0,1-.17,4.65c-.14,1-.28,1.44-1.41,1.44H15.63c-.72,0-1.05-.41-.91-1.2C14.79,7,14.84,5.69,14.84,5.3ZM3.29,21.94c-1.68,0-2.61-.55-2.61-2.38v-3c0-1.82.93-2.37,2.61-2.37h17c.84,0,1.58,0,1.58,1.15v1c0,1.22-.74,1.27-1.58,1.27H8.21v.82H20.38c.84,0,1.59,0,1.59,1.15v1.06c0,1.22-.75,1.27-1.59,1.27Z"/>
  <path class="cls-1" d="M30.13,18.34A4.84,4.84,0,0,1,29.81,20l-.88,2.76a.81.81,0,0,1-.82.58H25.83c-.58,0-.62-.22-.53-.7L25.83,20h-.6c-1.13,0-1.32-.41-1.32-1.39v-2.3c0-1,.31-1.49,1.51-1.49h3.22c1.29,0,1.49.43,1.49,1.41Z"/>
  <path class="cls-2" d="M59.7,15.84c.84,0,1.58.31,1.58,1.44v2.88A1.38,1.38,0,0,1,59.7,21.7H40.85c-.84,0-1.58-.31-1.58-1.44V17.38a1.38,1.38,0,0,1,1.58-1.54ZM53.84,2.47c0,3.65,1.68,5.52,5.4,5.52h.34c.84,0,1.58.31,1.58,1.44v3.05A1.38,1.38,0,0,1,59.58,14H58.5c-3.41,0-6.75-.82-8.21-3.36C48.82,13.2,45.46,14,42.08,14H41c-.84,0-1.59-.32-1.59-1.45v-3C39.41,8.3,40.16,8,41,8h.33c3.72,0,5.4-1.87,5.4-5.52V1.8c0-1,.58-1.56,1.78-1.56h3.55c1.3,0,1.78.58,1.78,1.56Z"/>
  <path class="cls-2" d="M71,19.25H83.36c.77,0,1,.38,1,1.06v.57c0,.67-.26,1.06-1,1.06H65c-1.2,0-1.89-.39-1.89-1.66V17.74a1.45,1.45,0,0,1,1.63-1.59H76.35v-.48H64.11c-.77,0-1-.38-1-1.05V14c0-.67.26-1.06,1-1.06h6v-.57h-6c-.84,0-1.58-.19-1.58-1.32v-.75c0-1.22.74-1.41,1.58-1.41H83.21c.84,0,1.59.19,1.59,1.32V11c0,1.23-.75,1.42-1.59,1.42H77.29V13H82.4c1.27,0,1.87.46,1.87,1.73v2.14a1.73,1.73,0,0,1-1.87,1.92H71ZM65.79,8.47c-1.68,0-2.71-.57-2.71-2.4V2.76c0-1.82,1-2.4,2.71-2.4H81.56c1.68,0,2.71.58,2.71,2.4V6.07c0,1.83-1,2.4-2.71,2.4ZM78.1,4.25c0-.48-.12-.48-.6-.48H69.85c-.48,0-.6,0-.6.48v.24c0,.55.07.57.6.57H77.5c.53,0,.6,0,.6-.57Z"/>
  <path class="cls-2" d="M101.17,8.26c0,3.55-2.33,5.85-6.41,5.85H92.65c-4.08,0-6.63-2.3-6.63-5.85V5.86C86,2.3,88.57,0,92.65,0h1.87c4.08,0,6.65,2.3,6.65,5.86ZM89.45,21.94a2.44,2.44,0,0,1-2.76-2.71V15.84c0-.84.44-1.34,1.56-1.34h3.24c1.23,0,1.56.5,1.56,1.34v.84c0,.29,0,.34.34.34H106.3c.84,0,1.59.31,1.59,1.44v1.92a1.4,1.4,0,0,1-1.59,1.56ZM91.54,7.46c0,1.28,1,1.54,1.83,1.54h.48c.84,0,1.8-.26,1.8-1.54V6.65c0-1.27-.94-1.54-1.8-1.54h-.48c-.87,0-1.83.27-1.83,1.54Zm16.23,7.16a1.57,1.57,0,0,1-1.76,1.7H103.4a1.53,1.53,0,0,1-1.75-1.7V2.06A1.57,1.57,0,0,1,103.4.36H106a1.54,1.54,0,0,1,1.76,1.7Z"/>
</svg>
